<?xml version="1.0" encoding="utf-8" standalone="no"?>
<!DOCTYPE svg PUBLIC "-//W3C//DTD SVG 1.1//EN"
  "http://www.w3.org/Graphics/SVG/1.1/DTD/svg11.dtd">
<svg xmlns:xlink="http://www.w3.org/1999/xlink" width="392.14375pt" height="211.07625pt" viewBox="0 0 392.14375 211.07625" xmlns="http://www.w3.org/2000/svg" version="1.1">
 <metadata>
  <rdf:RDF xmlns:dc="http://purl.org/dc/elements/1.1/" xmlns:cc="http://creativecommons.org/ns#" xmlns:rdf="http://www.w3.org/1999/02/22-rdf-syntax-ns#">
   <cc:Work>
    <dc:type rdf:resource="http://purl.org/dc/dcmitype/StillImage"/>
    <dc:date>2023-04-27T22:01:47.448358</dc:date>
    <dc:format>image/svg+xml</dc:format>
    <dc:creator>
     <cc:Agent>
      <dc:title>Matplotlib v3.7.1, https://matplotlib.org/</dc:title>
     </cc:Agent>
    </dc:creator>
   </cc:Work>
  </rdf:RDF>
 </metadata>
 <defs>
  <style type="text/css">*{stroke-linejoin: round; stroke-linecap: butt}</style>
 </defs>
 <g id="figure_1">
  <g id="patch_1">
   <path d="M 0 211.07625 
L 392.14375 211.07625 
L 392.14375 0 
L 0 0 
z
" style="fill: #ffffff"/>
  </g>
  <g id="axes_1">
   <g id="patch_2">
    <path d="M 50.14375 173.52 
L 384.94375 173.52 
L 384.94375 7.2 
L 50.14375 7.2 
z
" style="fill: #ffffff"/>
   </g>
   <g id="PathCollection_1">
    <defs>
     <path id="md03ce9130a" d="M -2.236068 2.236068 
L 2.236068 -2.236068 
M -2.236068 -2.236068 
L 2.236068 2.236068 
" style="stroke: #008000; stroke-width: 1.5"/>
    </defs>
    <g clip-path="url(#p1a510e8697)">
     <use xlink:href="#md03ce9130a" x="368.925147" y="41.559275" style="fill: #008000; stroke: #008000; stroke-width: 1.5"/>
    </g>
   </g>
   <g id="PathCollection_2">
    <g clip-path="url(#p1a510e8697)">
     <use xlink:href="#md03ce9130a" x="220.698522" y="137.173055" style="fill: #008000; stroke: #008000; stroke-width: 1.5"/>
    </g>
   </g>
   <g id="PathCollection_3">
    <g clip-path="url(#p1a510e8697)">
     <use xlink:href="#md03ce9130a" x="254.93008" y="110.099619" style="fill: #008000; stroke: #008000; stroke-width: 1.5"/>
    </g>
   </g>
   <g id="PathCollection_4">
    <g clip-path="url(#p1a510e8697)">
     <use xlink:href="#md03ce9130a" x="294.75377" y="160.819474" style="fill: #008000; stroke: #008000; stroke-width: 1.5"/>
    </g>
   </g>
   <g id="PathCollection_5">
    <g clip-path="url(#p1a510e8697)">
     <use xlink:href="#md03ce9130a" x="332.944955" y="143.204606" style="fill: #008000; stroke: #008000; stroke-width: 1.5"/>
    </g>
   </g>
   <g id="PathCollection_6">
    <g clip-path="url(#p1a510e8697)">
     <use xlink:href="#md03ce9130a" x="324.955899" y="34.431079" style="fill: #008000; stroke: #008000; stroke-width: 1.5"/>
    </g>
   </g>
   <g id="PathCollection_7">
    <g clip-path="url(#p1a510e8697)">
     <use xlink:href="#md03ce9130a" x="369.725568" y="20.174687" style="fill: #008000; stroke: #008000; stroke-width: 1.5"/>
    </g>
   </g>
   <g id="PathCollection_8">
    <defs>
     <path id="m64f04e9df0" d="M 0 2.236068 
C 0.593012 2.236068 1.161816 2.000462 1.581139 1.581139 
C 2.000462 1.161816 2.236068 0.593012 2.236068 0 
C 2.236068 -0.593012 2.000462 -1.161816 1.581139 -1.581139 
C 1.161816 -2.000462 0.593012 -2.236068 0 -2.236068 
C -0.593012 -2.236068 -1.161816 -2.000462 -1.581139 -1.581139 
C -2.000462 -1.161816 -2.236068 -0.593012 -2.236068 0 
C -2.236068 0.593012 -2.000462 1.161816 -1.581139 1.581139 
C -1.161816 2.000462 -0.593012 2.236068 0 2.236068 
z
" style="stroke: #0000ff"/>
    </defs>
    <g clip-path="url(#p1a510e8697)">
     <use xlink:href="#m64f04e9df0" x="232.798255" y="109.345675" style="fill: #0000ff; stroke: #0000ff"/>
    </g>
   </g>
   <g id="PathCollection_9">
    <g clip-path="url(#p1a510e8697)">
     <use xlink:href="#m64f04e9df0" x="267.650929" y="109.345675" style="fill: #0000ff; stroke: #0000ff"/>
    </g>
   </g>
   <g id="PathCollection_10">
    <g clip-path="url(#p1a510e8697)">
     <use xlink:href="#m64f04e9df0" x="165.382254" y="107.700707" style="fill: #0000ff; stroke: #0000ff"/>
    </g>
   </g>
   <g id="PathCollection_11">
    <g clip-path="url(#p1a510e8697)">
     <use xlink:href="#m64f04e9df0" x="165.382254" y="107.700707" style="fill: #0000ff; stroke: #0000ff"/>
    </g>
   </g>
   <g id="PathCollection_12">
    <g clip-path="url(#p1a510e8697)">
     <use xlink:href="#m64f04e9df0" x="152.373408" y="109.345675" style="fill: #0000ff; stroke: #0000ff"/>
    </g>
   </g>
   <g id="PathCollection_13">
    <g clip-path="url(#p1a510e8697)">
     <use xlink:href="#m64f04e9df0" x="146.7039" y="109.345675" style="fill: #0000ff; stroke: #0000ff"/>
    </g>
   </g>
   <g id="PathCollection_14">
    <g clip-path="url(#p1a510e8697)">
     <use xlink:href="#m64f04e9df0" x="92.531789" y="99.818568" style="fill: #0000ff; stroke: #0000ff"/>
    </g>
   </g>
   <g id="PathCollection_15">
    <g clip-path="url(#p1a510e8697)">
     <use xlink:href="#m64f04e9df0" x="168.103117" y="70.963083" style="fill: #0000ff; stroke: #0000ff"/>
    </g>
   </g>
   <g id="PathCollection_16">
    <defs>
     <path id="m251ef62024" d="M -0 2.236068 
L 2.236068 -2.236068 
L -2.236068 -2.236068 
z
" style="stroke: #ff0000"/>
    </defs>
    <g clip-path="url(#p1a510e8697)">
     <use xlink:href="#m251ef62024" x="65.361932" y="142.313581" style="fill: #ff0000; stroke: #ff0000"/>
    </g>
   </g>
   <g id="PathCollection_17">
    <g clip-path="url(#p1a510e8697)">
     <use xlink:href="#m64f04e9df0" x="90.484593" y="30.455739" style="fill: #0000ff; stroke: #0000ff"/>
    </g>
   </g>
   <g id="PathCollection_18">
    <g clip-path="url(#p1a510e8697)">
     <use xlink:href="#m64f04e9df0" x="67.129399" y="46.220018" style="fill: #0000ff; stroke: #0000ff"/>
    </g>
   </g>
   <g id="PathCollection_19">
    <g clip-path="url(#p1a510e8697)">
     <use xlink:href="#m251ef62024" x="138.760541" y="98.653382" style="fill: #ff0000; stroke: #ff0000"/>
    </g>
   </g>
   <g id="PathCollection_20">
    <g clip-path="url(#p1a510e8697)">
     <use xlink:href="#m251ef62024" x="115.888983" y="165.96" style="fill: #ff0000; stroke: #ff0000"/>
    </g>
   </g>
   <g id="PathCollection_21">
    <g clip-path="url(#p1a510e8697)">
     <use xlink:href="#m64f04e9df0" x="109.994005" y="70.963083" style="fill: #0000ff; stroke: #0000ff"/>
    </g>
   </g>
   <g id="PathCollection_22">
    <g clip-path="url(#p1a510e8697)">
     <use xlink:href="#m64f04e9df0" x="95.208693" y="109.345675" style="fill: #0000ff; stroke: #0000ff"/>
    </g>
   </g>
   <g id="PathCollection_23">
    <g clip-path="url(#p1a510e8697)">
     <use xlink:href="#m64f04e9df0" x="168.476044" y="59.379764" style="fill: #0000ff; stroke: #0000ff"/>
    </g>
   </g>
   <g id="PathCollection_24">
    <g clip-path="url(#p1a510e8697)">
     <use xlink:href="#m64f04e9df0" x="237.237813" y="59.379764" style="fill: #0000ff; stroke: #0000ff"/>
    </g>
   </g>
   <g id="PathCollection_25">
    <g clip-path="url(#p1a510e8697)">
     <use xlink:href="#m64f04e9df0" x="182.39368" y="50.058277" style="fill: #0000ff; stroke: #0000ff"/>
    </g>
   </g>
   <g id="PathCollection_26">
    <g clip-path="url(#p1a510e8697)">
     <use xlink:href="#m64f04e9df0" x="188.498151" y="44.095267" style="fill: #0000ff; stroke: #0000ff"/>
    </g>
   </g>
   <g id="PathCollection_27">
    <g clip-path="url(#p1a510e8697)">
     <use xlink:href="#m64f04e9df0" x="191.43719" y="39.228903" style="fill: #0000ff; stroke: #0000ff"/>
    </g>
   </g>
   <g id="PathCollection_28">
    <g clip-path="url(#p1a510e8697)">
     <use xlink:href="#m64f04e9df0" x="228.290972" y="25.383753" style="fill: #0000ff; stroke: #0000ff"/>
    </g>
   </g>
   <g id="PathCollection_29">
    <g clip-path="url(#p1a510e8697)">
     <use xlink:href="#m64f04e9df0" x="238.239293" y="19.557824" style="fill: #0000ff; stroke: #0000ff"/>
    </g>
   </g>
   <g id="PathCollection_30">
    <g clip-path="url(#p1a510e8697)">
     <use xlink:href="#m64f04e9df0" x="259.943995" y="15.239782" style="fill: #0000ff; stroke: #0000ff"/>
    </g>
   </g>
   <g id="PathCollection_31">
    <g clip-path="url(#p1a510e8697)">
     <use xlink:href="#m64f04e9df0" x="273.283387" y="14.76" style="fill: #0000ff; stroke: #0000ff"/>
    </g>
   </g>
   <g id="PathCollection_32">
    <g clip-path="url(#p1a510e8697)">
     <use xlink:href="#m64f04e9df0" x="128.349588" y="68.290009" style="fill: #0000ff; stroke: #0000ff"/>
    </g>
   </g>
   <g id="PathCollection_33">
    <g clip-path="url(#p1a510e8697)">
     <use xlink:href="#m64f04e9df0" x="188.997599" y="28.536609" style="fill: #0000ff; stroke: #0000ff"/>
    </g>
   </g>
   <g id="PathCollection_34">
    <g clip-path="url(#p1a510e8697)">
     <use xlink:href="#m64f04e9df0" x="251.651576" y="162.190281" style="fill: #0000ff; stroke: #0000ff"/>
    </g>
   </g>
   <g id="patch_3">
    <path d="M 263.778623 132.085421 
Q 244.229302 142.406768 223.298798 137.777746 
" clip-path="url(#p1a510e8697)" style="fill: none; opacity: 0.5; stroke: #000000; stroke-width: 0.6; stroke-linecap: round"/>
    <path d="M 223.472485 137.918575 
L 223.298798 137.777746 
L 223.515674 137.723294 
z
" clip-path="url(#p1a510e8697)" style="opacity: 0.5; stroke: #000000; stroke-width: 0.6; stroke-linecap: round"/>
   </g>
   <g id="patch_4">
    <path d="M 270.207186 104.633214 
Q 264.419406 109.428728 257.594281 109.964986 
" clip-path="url(#p1a510e8697)" style="fill: none; opacity: 0.5; stroke: #000000; stroke-width: 0.6; stroke-linecap: round"/>
    <path d="M 257.8015 110.049012 
L 257.594281 109.964986 
L 257.785834 109.849627 
z
" clip-path="url(#p1a510e8697)" style="opacity: 0.5; stroke: #000000; stroke-width: 0.6; stroke-linecap: round"/>
   </g>
   <g id="patch_5">
    <path d="M 335.440893 29.819154 
Q 331.808445 33.203905 327.593178 34.023391 
" clip-path="url(#p1a510e8697)" style="fill: none; opacity: 0.5; stroke: #000000; stroke-width: 0.6; stroke-linecap: round"/>
    <path d="M 327.808586 34.083386 
L 327.593178 34.023391 
L 327.770418 33.887061 
z
" clip-path="url(#p1a510e8697)" style="opacity: 0.5; stroke: #000000; stroke-width: 0.6; stroke-linecap: round"/>
   </g>
   <g id="patch_6">
    <path d="M 338.478307 27.241804 
Q 351.808931 18.38671 367.069521 19.876265 
" clip-path="url(#p1a510e8697)" style="fill: none; opacity: 0.5; stroke: #000000; stroke-width: 0.6; stroke-linecap: round"/>
    <path d="M 366.880182 19.757309 
L 367.069521 19.876265 
L 366.860753 19.956363 
z
" clip-path="url(#p1a510e8697)" style="opacity: 0.5; stroke: #000000; stroke-width: 0.6; stroke-linecap: round"/>
   </g>
   <g id="patch_7">
    <path d="M 89.939544 137.368011 
Q 79.538817 143.859471 68.013114 142.643036 
" clip-path="url(#p1a510e8697)" style="fill: none; opacity: 0.5; stroke: #000000; stroke-width: 0.6; stroke-linecap: round"/>
    <path d="M 68.201514 142.763476 
L 68.013114 142.643036 
L 68.222506 142.56458 
z
" clip-path="url(#p1a510e8697)" style="opacity: 0.5; stroke: #000000; stroke-width: 0.6; stroke-linecap: round"/>
   </g>
   <g id="patch_8">
    <path d="M 111.574772 25.556633 
Q 102.880445 31.308653 93.146887 30.683679 
" clip-path="url(#p1a510e8697)" style="fill: none; opacity: 0.5; stroke: #000000; stroke-width: 0.6; stroke-linecap: round"/>
    <path d="M 93.340069 30.796289 
L 93.146887 30.683679 
L 93.352884 30.5967 
z
" clip-path="url(#p1a510e8697)" style="opacity: 0.5; stroke: #000000; stroke-width: 0.6; stroke-linecap: round"/>
   </g>
   <g id="patch_9">
    <path d="M 111.831345 25.854425 
Q 94.225595 43.879056 69.793701 46.013064 
" clip-path="url(#p1a510e8697)" style="fill: none; opacity: 0.5; stroke: #000000; stroke-width: 0.6; stroke-linecap: round"/>
    <path d="M 70.001644 46.095282 
L 69.793701 46.013064 
L 69.984241 45.896041 
z
" clip-path="url(#p1a510e8697)" style="opacity: 0.5; stroke: #000000; stroke-width: 0.6; stroke-linecap: round"/>
   </g>
   <g id="patch_10">
    <path d="M 171.210007 93.627051 
Q 156.931336 101.765432 141.388232 99.136409 
" clip-path="url(#p1a510e8697)" style="fill: none; opacity: 0.5; stroke: #000000; stroke-width: 0.6; stroke-linecap: round"/>
    <path d="M 141.568753 99.268363 
L 141.388232 99.136409 
L 141.602108 99.071164 
z
" clip-path="url(#p1a510e8697)" style="opacity: 0.5; stroke: #000000; stroke-width: 0.6; stroke-linecap: round"/>
   </g>
   <g id="patch_11">
    <path d="M 265.288865 31.848844 
Q 246.665934 35.49515 230.613705 26.694993 
" clip-path="url(#p1a510e8697)" style="fill: none; opacity: 0.5; stroke: #000000; stroke-width: 0.6; stroke-linecap: round"/>
    <path d="M 230.741008 26.878825 
L 230.613705 26.694993 
L 230.837152 26.70345 
z
" clip-path="url(#p1a510e8697)" style="opacity: 0.5; stroke: #000000; stroke-width: 0.6; stroke-linecap: round"/>
   </g>
   <g id="patch_12">
    <path d="M 265.247505 31.374209 
Q 250.636047 30.644891 240.208038 21.366194 
" clip-path="url(#p1a510e8697)" style="fill: none; opacity: 0.5; stroke: #000000; stroke-width: 0.6; stroke-linecap: round"/>
    <path d="M 240.290979 21.573849 
L 240.208038 21.366194 
L 240.423927 21.424434 
z
" clip-path="url(#p1a510e8697)" style="opacity: 0.5; stroke: #000000; stroke-width: 0.6; stroke-linecap: round"/>
   </g>
   <g id="patch_13">
    <path d="M 265.855321 29.98938 
Q 260.968887 24.516289 260.182912 17.895957 
" clip-path="url(#p1a510e8697)" style="fill: none; opacity: 0.5; stroke: #000000; stroke-width: 0.6; stroke-linecap: round"/>
    <path d="M 260.107188 18.106351 
L 260.182912 17.895957 
L 260.305793 18.082773 
z
" clip-path="url(#p1a510e8697)" style="opacity: 0.5; stroke: #000000; stroke-width: 0.6; stroke-linecap: round"/>
   </g>
   <g id="patch_14">
    <path d="M 267.253763 29.431943 
Q 267.563099 22.118194 271.601014 16.835285 
" clip-path="url(#p1a510e8697)" style="fill: none; opacity: 0.5; stroke: #000000; stroke-width: 0.6; stroke-linecap: round"/>
    <path d="M 271.400112 16.933459 
L 271.601014 16.835285 
L 271.559012 17.054912 
z
" clip-path="url(#p1a510e8697)" style="opacity: 0.5; stroke: #000000; stroke-width: 0.6; stroke-linecap: round"/>
   </g>
   <g id="patch_15">
    <path d="M 208.422534 23.66789 
Q 200.537804 29.060488 191.663315 28.704737 
" clip-path="url(#p1a510e8697)" style="fill: none; opacity: 0.5; stroke: #000000; stroke-width: 0.6; stroke-linecap: round"/>
    <path d="M 191.859149 28.812668 
L 191.663315 28.704737 
L 191.86716 28.612828 
z
" clip-path="url(#p1a510e8697)" style="opacity: 0.5; stroke: #000000; stroke-width: 0.6; stroke-linecap: round"/>
   </g>
   <g id="matplotlib.axis_1">
    <g id="xtick_1">
     <g id="line2d_1">
      <defs>
       <path id="m1a4604f134" d="M 0 0 
L 0 3.5 
" style="stroke: #000000; stroke-width: 0.8"/>
      </defs>
      <g>
       <use xlink:href="#m1a4604f134" x="56.824895" y="173.52" style="stroke: #000000; stroke-width: 0.8"/>
      </g>
     </g>
     <g id="text_1">
      <!-- $\mathdefault{10^{2}}$ -->
      <g transform="translate(48.024895 188.118438) scale(0.1 -0.1)">
       <defs>
        <path id="DejaVuSans-31" d="M 794 531 
L 1825 531 
L 1825 4091 
L 703 3866 
L 703 4441 
L 1819 4666 
L 2450 4666 
L 2450 531 
L 3481 531 
L 3481 0 
L 794 0 
L 794 531 
z
" transform="scale(0.015625)"/>
        <path id="DejaVuSans-30" d="M 2034 4250 
Q 1547 4250 1301 3770 
Q 1056 3291 1056 2328 
Q 1056 1369 1301 889 
Q 1547 409 2034 409 
Q 2525 409 2770 889 
Q 3016 1369 3016 2328 
Q 3016 3291 2770 3770 
Q 2525 4250 2034 4250 
z
M 2034 4750 
Q 2819 4750 3233 4129 
Q 3647 3509 3647 2328 
Q 3647 1150 3233 529 
Q 2819 -91 2034 -91 
Q 1250 -91 836 529 
Q 422 1150 422 2328 
Q 422 3509 836 4129 
Q 1250 4750 2034 4750 
z
" transform="scale(0.015625)"/>
        <path id="DejaVuSans-32" d="M 1228 531 
L 3431 531 
L 3431 0 
L 469 0 
L 469 531 
Q 828 903 1448 1529 
Q 2069 2156 2228 2338 
Q 2531 2678 2651 2914 
Q 2772 3150 2772 3378 
Q 2772 3750 2511 3984 
Q 2250 4219 1831 4219 
Q 1534 4219 1204 4116 
Q 875 4013 500 3803 
L 500 4441 
Q 881 4594 1212 4672 
Q 1544 4750 1819 4750 
Q 2544 4750 2975 4387 
Q 3406 4025 3406 3419 
Q 3406 3131 3298 2873 
Q 3191 2616 2906 2266 
Q 2828 2175 2409 1742 
Q 1991 1309 1228 531 
z
" transform="scale(0.015625)"/>
       </defs>
       <use xlink:href="#DejaVuSans-31" transform="translate(0 0.765625)"/>
       <use xlink:href="#DejaVuSans-30" transform="translate(63.623047 0.765625)"/>
       <use xlink:href="#DejaVuSans-32" transform="translate(128.203125 39.046875) scale(0.7)"/>
      </g>
     </g>
    </g>
    <g id="xtick_2">
     <g id="line2d_2">
      <g>
       <use xlink:href="#m1a4604f134" x="118.411484" y="173.52" style="stroke: #000000; stroke-width: 0.8"/>
      </g>
     </g>
     <g id="text_2">
      <!-- $\mathdefault{10^{3}}$ -->
      <g transform="translate(109.611484 188.118438) scale(0.1 -0.1)">
       <defs>
        <path id="DejaVuSans-33" d="M 2597 2516 
Q 3050 2419 3304 2112 
Q 3559 1806 3559 1356 
Q 3559 666 3084 287 
Q 2609 -91 1734 -91 
Q 1441 -91 1130 -33 
Q 819 25 488 141 
L 488 750 
Q 750 597 1062 519 
Q 1375 441 1716 441 
Q 2309 441 2620 675 
Q 2931 909 2931 1356 
Q 2931 1769 2642 2001 
Q 2353 2234 1838 2234 
L 1294 2234 
L 1294 2753 
L 1863 2753 
Q 2328 2753 2575 2939 
Q 2822 3125 2822 3475 
Q 2822 3834 2567 4026 
Q 2313 4219 1838 4219 
Q 1578 4219 1281 4162 
Q 984 4106 628 3988 
L 628 4550 
Q 988 4650 1302 4700 
Q 1616 4750 1894 4750 
Q 2613 4750 3031 4423 
Q 3450 4097 3450 3541 
Q 3450 3153 3228 2886 
Q 3006 2619 2597 2516 
z
" transform="scale(0.015625)"/>
       </defs>
       <use xlink:href="#DejaVuSans-31" transform="translate(0 0.765625)"/>
       <use xlink:href="#DejaVuSans-30" transform="translate(63.623047 0.765625)"/>
       <use xlink:href="#DejaVuSans-33" transform="translate(128.203125 39.046875) scale(0.7)"/>
      </g>
     </g>
    </g>
    <g id="xtick_3">
     <g id="line2d_3">
      <g>
       <use xlink:href="#m1a4604f134" x="179.998072" y="173.52" style="stroke: #000000; stroke-width: 0.8"/>
      </g>
     </g>
     <g id="text_3">
      <!-- $\mathdefault{10^{4}}$ -->
      <g transform="translate(171.198072 188.118438) scale(0.1 -0.1)">
       <defs>
        <path id="DejaVuSans-34" d="M 2419 4116 
L 825 1625 
L 2419 1625 
L 2419 4116 
z
M 2253 4666 
L 3047 4666 
L 3047 1625 
L 3713 1625 
L 3713 1100 
L 3047 1100 
L 3047 0 
L 2419 0 
L 2419 1100 
L 313 1100 
L 313 1709 
L 2253 4666 
z
" transform="scale(0.015625)"/>
       </defs>
       <use xlink:href="#DejaVuSans-31" transform="translate(0 0.684375)"/>
       <use xlink:href="#DejaVuSans-30" transform="translate(63.623047 0.684375)"/>
       <use xlink:href="#DejaVuSans-34" transform="translate(128.203125 38.965625) scale(0.7)"/>
      </g>
     </g>
    </g>
    <g id="xtick_4">
     <g id="line2d_4">
      <g>
       <use xlink:href="#m1a4604f134" x="241.58466" y="173.52" style="stroke: #000000; stroke-width: 0.8"/>
      </g>
     </g>
     <g id="text_4">
      <!-- $\mathdefault{10^{5}}$ -->
      <g transform="translate(232.78466 188.118438) scale(0.1 -0.1)">
       <defs>
        <path id="DejaVuSans-35" d="M 691 4666 
L 3169 4666 
L 3169 4134 
L 1269 4134 
L 1269 2991 
Q 1406 3038 1543 3061 
Q 1681 3084 1819 3084 
Q 2600 3084 3056 2656 
Q 3513 2228 3513 1497 
Q 3513 744 3044 326 
Q 2575 -91 1722 -91 
Q 1428 -91 1123 -41 
Q 819 9 494 109 
L 494 744 
Q 775 591 1075 516 
Q 1375 441 1709 441 
Q 2250 441 2565 725 
Q 2881 1009 2881 1497 
Q 2881 1984 2565 2268 
Q 2250 2553 1709 2553 
Q 1456 2553 1204 2497 
Q 953 2441 691 2322 
L 691 4666 
z
" transform="scale(0.015625)"/>
       </defs>
       <use xlink:href="#DejaVuSans-31" transform="translate(0 0.684375)"/>
       <use xlink:href="#DejaVuSans-30" transform="translate(63.623047 0.684375)"/>
       <use xlink:href="#DejaVuSans-35" transform="translate(128.203125 38.965625) scale(0.7)"/>
      </g>
     </g>
    </g>
    <g id="xtick_5">
     <g id="line2d_5">
      <g>
       <use xlink:href="#m1a4604f134" x="303.171248" y="173.52" style="stroke: #000000; stroke-width: 0.8"/>
      </g>
     </g>
     <g id="text_5">
      <!-- $\mathdefault{10^{6}}$ -->
      <g transform="translate(294.371248 188.118438) scale(0.1 -0.1)">
       <defs>
        <path id="DejaVuSans-36" d="M 2113 2584 
Q 1688 2584 1439 2293 
Q 1191 2003 1191 1497 
Q 1191 994 1439 701 
Q 1688 409 2113 409 
Q 2538 409 2786 701 
Q 3034 994 3034 1497 
Q 3034 2003 2786 2293 
Q 2538 2584 2113 2584 
z
M 3366 4563 
L 3366 3988 
Q 3128 4100 2886 4159 
Q 2644 4219 2406 4219 
Q 1781 4219 1451 3797 
Q 1122 3375 1075 2522 
Q 1259 2794 1537 2939 
Q 1816 3084 2150 3084 
Q 2853 3084 3261 2657 
Q 3669 2231 3669 1497 
Q 3669 778 3244 343 
Q 2819 -91 2113 -91 
Q 1303 -91 875 529 
Q 447 1150 447 2328 
Q 447 3434 972 4092 
Q 1497 4750 2381 4750 
Q 2619 4750 2861 4703 
Q 3103 4656 3366 4563 
z
" transform="scale(0.015625)"/>
       </defs>
       <use xlink:href="#DejaVuSans-31" transform="translate(0 0.765625)"/>
       <use xlink:href="#DejaVuSans-30" transform="translate(63.623047 0.765625)"/>
       <use xlink:href="#DejaVuSans-36" transform="translate(128.203125 39.046875) scale(0.7)"/>
      </g>
     </g>
    </g>
    <g id="xtick_6">
     <g id="line2d_6">
      <g>
       <use xlink:href="#m1a4604f134" x="364.757837" y="173.52" style="stroke: #000000; stroke-width: 0.8"/>
      </g>
     </g>
     <g id="text_6">
      <!-- $\mathdefault{10^{7}}$ -->
      <g transform="translate(355.957837 188.118438) scale(0.1 -0.1)">
       <defs>
        <path id="DejaVuSans-37" d="M 525 4666 
L 3525 4666 
L 3525 4397 
L 1831 0 
L 1172 0 
L 2766 4134 
L 525 4134 
L 525 4666 
z
" transform="scale(0.015625)"/>
       </defs>
       <use xlink:href="#DejaVuSans-31" transform="translate(0 0.684375)"/>
       <use xlink:href="#DejaVuSans-30" transform="translate(63.623047 0.684375)"/>
       <use xlink:href="#DejaVuSans-37" transform="translate(128.203125 38.965625) scale(0.7)"/>
      </g>
     </g>
    </g>
    <g id="xtick_7">
     <g id="line2d_7">
      <defs>
       <path id="ma25ed3478e" d="M 0 0 
L 0 2 
" style="stroke: #000000; stroke-width: 0.6"/>
      </defs>
      <g>
       <use xlink:href="#ma25ed3478e" x="50.856538" y="173.52" style="stroke: #000000; stroke-width: 0.6"/>
      </g>
     </g>
    </g>
    <g id="xtick_8">
     <g id="line2d_8">
      <g>
       <use xlink:href="#ma25ed3478e" x="54.006848" y="173.52" style="stroke: #000000; stroke-width: 0.6"/>
      </g>
     </g>
    </g>
    <g id="xtick_9">
     <g id="line2d_9">
      <g>
       <use xlink:href="#ma25ed3478e" x="75.364306" y="173.52" style="stroke: #000000; stroke-width: 0.6"/>
      </g>
     </g>
    </g>
    <g id="xtick_10">
     <g id="line2d_10">
      <g>
       <use xlink:href="#ma25ed3478e" x="86.209166" y="173.52" style="stroke: #000000; stroke-width: 0.6"/>
      </g>
     </g>
    </g>
    <g id="xtick_11">
     <g id="line2d_11">
      <g>
       <use xlink:href="#ma25ed3478e" x="93.903716" y="173.52" style="stroke: #000000; stroke-width: 0.6"/>
      </g>
     </g>
    </g>
    <g id="xtick_12">
     <g id="line2d_12">
      <g>
       <use xlink:href="#ma25ed3478e" x="99.872073" y="173.52" style="stroke: #000000; stroke-width: 0.6"/>
      </g>
     </g>
    </g>
    <g id="xtick_13">
     <g id="line2d_13">
      <g>
       <use xlink:href="#ma25ed3478e" x="104.748576" y="173.52" style="stroke: #000000; stroke-width: 0.6"/>
      </g>
     </g>
    </g>
    <g id="xtick_14">
     <g id="line2d_14">
      <g>
       <use xlink:href="#ma25ed3478e" x="108.8716" y="173.52" style="stroke: #000000; stroke-width: 0.6"/>
      </g>
     </g>
    </g>
    <g id="xtick_15">
     <g id="line2d_15">
      <g>
       <use xlink:href="#ma25ed3478e" x="112.443127" y="173.52" style="stroke: #000000; stroke-width: 0.6"/>
      </g>
     </g>
    </g>
    <g id="xtick_16">
     <g id="line2d_16">
      <g>
       <use xlink:href="#ma25ed3478e" x="115.593436" y="173.52" style="stroke: #000000; stroke-width: 0.6"/>
      </g>
     </g>
    </g>
    <g id="xtick_17">
     <g id="line2d_17">
      <g>
       <use xlink:href="#ma25ed3478e" x="136.950894" y="173.52" style="stroke: #000000; stroke-width: 0.6"/>
      </g>
     </g>
    </g>
    <g id="xtick_18">
     <g id="line2d_18">
      <g>
       <use xlink:href="#ma25ed3478e" x="147.795754" y="173.52" style="stroke: #000000; stroke-width: 0.6"/>
      </g>
     </g>
    </g>
    <g id="xtick_19">
     <g id="line2d_19">
      <g>
       <use xlink:href="#ma25ed3478e" x="155.490304" y="173.52" style="stroke: #000000; stroke-width: 0.6"/>
      </g>
     </g>
    </g>
    <g id="xtick_20">
     <g id="line2d_20">
      <g>
       <use xlink:href="#ma25ed3478e" x="161.458661" y="173.52" style="stroke: #000000; stroke-width: 0.6"/>
      </g>
     </g>
    </g>
    <g id="xtick_21">
     <g id="line2d_21">
      <g>
       <use xlink:href="#ma25ed3478e" x="166.335164" y="173.52" style="stroke: #000000; stroke-width: 0.6"/>
      </g>
     </g>
    </g>
    <g id="xtick_22">
     <g id="line2d_22">
      <g>
       <use xlink:href="#ma25ed3478e" x="170.458189" y="173.52" style="stroke: #000000; stroke-width: 0.6"/>
      </g>
     </g>
    </g>
    <g id="xtick_23">
     <g id="line2d_23">
      <g>
       <use xlink:href="#ma25ed3478e" x="174.029715" y="173.52" style="stroke: #000000; stroke-width: 0.6"/>
      </g>
     </g>
    </g>
    <g id="xtick_24">
     <g id="line2d_24">
      <g>
       <use xlink:href="#ma25ed3478e" x="177.180024" y="173.52" style="stroke: #000000; stroke-width: 0.6"/>
      </g>
     </g>
    </g>
    <g id="xtick_25">
     <g id="line2d_25">
      <g>
       <use xlink:href="#ma25ed3478e" x="198.537482" y="173.52" style="stroke: #000000; stroke-width: 0.6"/>
      </g>
     </g>
    </g>
    <g id="xtick_26">
     <g id="line2d_26">
      <g>
       <use xlink:href="#ma25ed3478e" x="209.382342" y="173.52" style="stroke: #000000; stroke-width: 0.6"/>
      </g>
     </g>
    </g>
    <g id="xtick_27">
     <g id="line2d_27">
      <g>
       <use xlink:href="#ma25ed3478e" x="217.076893" y="173.52" style="stroke: #000000; stroke-width: 0.6"/>
      </g>
     </g>
    </g>
    <g id="xtick_28">
     <g id="line2d_28">
      <g>
       <use xlink:href="#ma25ed3478e" x="223.04525" y="173.52" style="stroke: #000000; stroke-width: 0.6"/>
      </g>
     </g>
    </g>
    <g id="xtick_29">
     <g id="line2d_29">
      <g>
       <use xlink:href="#ma25ed3478e" x="227.921752" y="173.52" style="stroke: #000000; stroke-width: 0.6"/>
      </g>
     </g>
    </g>
    <g id="xtick_30">
     <g id="line2d_30">
      <g>
       <use xlink:href="#ma25ed3478e" x="232.044777" y="173.52" style="stroke: #000000; stroke-width: 0.6"/>
      </g>
     </g>
    </g>
    <g id="xtick_31">
     <g id="line2d_31">
      <g>
       <use xlink:href="#ma25ed3478e" x="235.616303" y="173.52" style="stroke: #000000; stroke-width: 0.6"/>
      </g>
     </g>
    </g>
    <g id="xtick_32">
     <g id="line2d_32">
      <g>
       <use xlink:href="#ma25ed3478e" x="238.766612" y="173.52" style="stroke: #000000; stroke-width: 0.6"/>
      </g>
     </g>
    </g>
    <g id="xtick_33">
     <g id="line2d_33">
      <g>
       <use xlink:href="#ma25ed3478e" x="260.12407" y="173.52" style="stroke: #000000; stroke-width: 0.6"/>
      </g>
     </g>
    </g>
    <g id="xtick_34">
     <g id="line2d_34">
      <g>
       <use xlink:href="#ma25ed3478e" x="270.96893" y="173.52" style="stroke: #000000; stroke-width: 0.6"/>
      </g>
     </g>
    </g>
    <g id="xtick_35">
     <g id="line2d_35">
      <g>
       <use xlink:href="#ma25ed3478e" x="278.663481" y="173.52" style="stroke: #000000; stroke-width: 0.6"/>
      </g>
     </g>
    </g>
    <g id="xtick_36">
     <g id="line2d_36">
      <g>
       <use xlink:href="#ma25ed3478e" x="284.631838" y="173.52" style="stroke: #000000; stroke-width: 0.6"/>
      </g>
     </g>
    </g>
    <g id="xtick_37">
     <g id="line2d_37">
      <g>
       <use xlink:href="#ma25ed3478e" x="289.508341" y="173.52" style="stroke: #000000; stroke-width: 0.6"/>
      </g>
     </g>
    </g>
    <g id="xtick_38">
     <g id="line2d_38">
      <g>
       <use xlink:href="#ma25ed3478e" x="293.631365" y="173.52" style="stroke: #000000; stroke-width: 0.6"/>
      </g>
     </g>
    </g>
    <g id="xtick_39">
     <g id="line2d_39">
      <g>
       <use xlink:href="#ma25ed3478e" x="297.202891" y="173.52" style="stroke: #000000; stroke-width: 0.6"/>
      </g>
     </g>
    </g>
    <g id="xtick_40">
     <g id="line2d_40">
      <g>
       <use xlink:href="#ma25ed3478e" x="300.353201" y="173.52" style="stroke: #000000; stroke-width: 0.6"/>
      </g>
     </g>
    </g>
    <g id="xtick_41">
     <g id="line2d_41">
      <g>
       <use xlink:href="#ma25ed3478e" x="321.710659" y="173.52" style="stroke: #000000; stroke-width: 0.6"/>
      </g>
     </g>
    </g>
    <g id="xtick_42">
     <g id="line2d_42">
      <g>
       <use xlink:href="#ma25ed3478e" x="332.555519" y="173.52" style="stroke: #000000; stroke-width: 0.6"/>
      </g>
     </g>
    </g>
    <g id="xtick_43">
     <g id="line2d_43">
      <g>
       <use xlink:href="#ma25ed3478e" x="340.250069" y="173.52" style="stroke: #000000; stroke-width: 0.6"/>
      </g>
     </g>
    </g>
    <g id="xtick_44">
     <g id="line2d_44">
      <g>
       <use xlink:href="#ma25ed3478e" x="346.218426" y="173.52" style="stroke: #000000; stroke-width: 0.6"/>
      </g>
     </g>
    </g>
    <g id="xtick_45">
     <g id="line2d_45">
      <g>
       <use xlink:href="#ma25ed3478e" x="351.094929" y="173.52" style="stroke: #000000; stroke-width: 0.6"/>
      </g>
     </g>
    </g>
    <g id="xtick_46">
     <g id="line2d_46">
      <g>
       <use xlink:href="#ma25ed3478e" x="355.217953" y="173.52" style="stroke: #000000; stroke-width: 0.6"/>
      </g>
     </g>
    </g>
    <g id="xtick_47">
     <g id="line2d_47">
      <g>
       <use xlink:href="#ma25ed3478e" x="358.789479" y="173.52" style="stroke: #000000; stroke-width: 0.6"/>
      </g>
     </g>
    </g>
    <g id="xtick_48">
     <g id="line2d_48">
      <g>
       <use xlink:href="#ma25ed3478e" x="361.939789" y="173.52" style="stroke: #000000; stroke-width: 0.6"/>
      </g>
     </g>
    </g>
    <g id="xtick_49">
     <g id="line2d_49">
      <g>
       <use xlink:href="#ma25ed3478e" x="383.297247" y="173.52" style="stroke: #000000; stroke-width: 0.6"/>
      </g>
     </g>
    </g>
    <g id="text_7">
     <!-- Online Latency (ms) under LAN Setting over CIFAR-10 -->
     <g transform="translate(83.147656 201.796563) scale(0.1 -0.1)">
      <defs>
       <path id="DejaVuSans-4f" d="M 2522 4238 
Q 1834 4238 1429 3725 
Q 1025 3213 1025 2328 
Q 1025 1447 1429 934 
Q 1834 422 2522 422 
Q 3209 422 3611 934 
Q 4013 1447 4013 2328 
Q 4013 3213 3611 3725 
Q 3209 4238 2522 4238 
z
M 2522 4750 
Q 3503 4750 4090 4092 
Q 4678 3434 4678 2328 
Q 4678 1225 4090 567 
Q 3503 -91 2522 -91 
Q 1538 -91 948 565 
Q 359 1222 359 2328 
Q 359 3434 948 4092 
Q 1538 4750 2522 4750 
z
" transform="scale(0.015625)"/>
       <path id="DejaVuSans-6e" d="M 3513 2113 
L 3513 0 
L 2938 0 
L 2938 2094 
Q 2938 2591 2744 2837 
Q 2550 3084 2163 3084 
Q 1697 3084 1428 2787 
Q 1159 2491 1159 1978 
L 1159 0 
L 581 0 
L 581 3500 
L 1159 3500 
L 1159 2956 
Q 1366 3272 1645 3428 
Q 1925 3584 2291 3584 
Q 2894 3584 3203 3211 
Q 3513 2838 3513 2113 
z
" transform="scale(0.015625)"/>
       <path id="DejaVuSans-6c" d="M 603 4863 
L 1178 4863 
L 1178 0 
L 603 0 
L 603 4863 
z
" transform="scale(0.015625)"/>
       <path id="DejaVuSans-69" d="M 603 3500 
L 1178 3500 
L 1178 0 
L 603 0 
L 603 3500 
z
M 603 4863 
L 1178 4863 
L 1178 4134 
L 603 4134 
L 603 4863 
z
" transform="scale(0.015625)"/>
       <path id="DejaVuSans-65" d="M 3597 1894 
L 3597 1613 
L 953 1613 
Q 991 1019 1311 708 
Q 1631 397 2203 397 
Q 2534 397 2845 478 
Q 3156 559 3463 722 
L 3463 178 
Q 3153 47 2828 -22 
Q 2503 -91 2169 -91 
Q 1331 -91 842 396 
Q 353 884 353 1716 
Q 353 2575 817 3079 
Q 1281 3584 2069 3584 
Q 2775 3584 3186 3129 
Q 3597 2675 3597 1894 
z
M 3022 2063 
Q 3016 2534 2758 2815 
Q 2500 3097 2075 3097 
Q 1594 3097 1305 2825 
Q 1016 2553 972 2059 
L 3022 2063 
z
" transform="scale(0.015625)"/>
       <path id="DejaVuSans-20" transform="scale(0.015625)"/>
       <path id="DejaVuSans-4c" d="M 628 4666 
L 1259 4666 
L 1259 531 
L 3531 531 
L 3531 0 
L 628 0 
L 628 4666 
z
" transform="scale(0.015625)"/>
       <path id="DejaVuSans-61" d="M 2194 1759 
Q 1497 1759 1228 1600 
Q 959 1441 959 1056 
Q 959 750 1161 570 
Q 1363 391 1709 391 
Q 2188 391 2477 730 
Q 2766 1069 2766 1631 
L 2766 1759 
L 2194 1759 
z
M 3341 1997 
L 3341 0 
L 2766 0 
L 2766 531 
Q 2569 213 2275 61 
Q 1981 -91 1556 -91 
Q 1019 -91 701 211 
Q 384 513 384 1019 
Q 384 1609 779 1909 
Q 1175 2209 1959 2209 
L 2766 2209 
L 2766 2266 
Q 2766 2663 2505 2880 
Q 2244 3097 1772 3097 
Q 1472 3097 1187 3025 
Q 903 2953 641 2809 
L 641 3341 
Q 956 3463 1253 3523 
Q 1550 3584 1831 3584 
Q 2591 3584 2966 3190 
Q 3341 2797 3341 1997 
z
" transform="scale(0.015625)"/>
       <path id="DejaVuSans-74" d="M 1172 4494 
L 1172 3500 
L 2356 3500 
L 2356 3053 
L 1172 3053 
L 1172 1153 
Q 1172 725 1289 603 
Q 1406 481 1766 481 
L 2356 481 
L 2356 0 
L 1766 0 
Q 1100 0 847 248 
Q 594 497 594 1153 
L 594 3053 
L 172 3053 
L 172 3500 
L 594 3500 
L 594 4494 
L 1172 4494 
z
" transform="scale(0.015625)"/>
       <path id="DejaVuSans-63" d="M 3122 3366 
L 3122 2828 
Q 2878 2963 2633 3030 
Q 2388 3097 2138 3097 
Q 1578 3097 1268 2742 
Q 959 2388 959 1747 
Q 959 1106 1268 751 
Q 1578 397 2138 397 
Q 2388 397 2633 464 
Q 2878 531 3122 666 
L 3122 134 
Q 2881 22 2623 -34 
Q 2366 -91 2075 -91 
Q 1284 -91 818 406 
Q 353 903 353 1747 
Q 353 2603 823 3093 
Q 1294 3584 2113 3584 
Q 2378 3584 2631 3529 
Q 2884 3475 3122 3366 
z
" transform="scale(0.015625)"/>
       <path id="DejaVuSans-79" d="M 2059 -325 
Q 1816 -950 1584 -1140 
Q 1353 -1331 966 -1331 
L 506 -1331 
L 506 -850 
L 844 -850 
Q 1081 -850 1212 -737 
Q 1344 -625 1503 -206 
L 1606 56 
L 191 3500 
L 800 3500 
L 1894 763 
L 2988 3500 
L 3597 3500 
L 2059 -325 
z
" transform="scale(0.015625)"/>
       <path id="DejaVuSans-28" d="M 1984 4856 
Q 1566 4138 1362 3434 
Q 1159 2731 1159 2009 
Q 1159 1288 1364 580 
Q 1569 -128 1984 -844 
L 1484 -844 
Q 1016 -109 783 600 
Q 550 1309 550 2009 
Q 550 2706 781 3412 
Q 1013 4119 1484 4856 
L 1984 4856 
z
" transform="scale(0.015625)"/>
       <path id="DejaVuSans-6d" d="M 3328 2828 
Q 3544 3216 3844 3400 
Q 4144 3584 4550 3584 
Q 5097 3584 5394 3201 
Q 5691 2819 5691 2113 
L 5691 0 
L 5113 0 
L 5113 2094 
Q 5113 2597 4934 2840 
Q 4756 3084 4391 3084 
Q 3944 3084 3684 2787 
Q 3425 2491 3425 1978 
L 3425 0 
L 2847 0 
L 2847 2094 
Q 2847 2600 2669 2842 
Q 2491 3084 2119 3084 
Q 1678 3084 1418 2786 
Q 1159 2488 1159 1978 
L 1159 0 
L 581 0 
L 581 3500 
L 1159 3500 
L 1159 2956 
Q 1356 3278 1631 3431 
Q 1906 3584 2284 3584 
Q 2666 3584 2933 3390 
Q 3200 3197 3328 2828 
z
" transform="scale(0.015625)"/>
       <path id="DejaVuSans-73" d="M 2834 3397 
L 2834 2853 
Q 2591 2978 2328 3040 
Q 2066 3103 1784 3103 
Q 1356 3103 1142 2972 
Q 928 2841 928 2578 
Q 928 2378 1081 2264 
Q 1234 2150 1697 2047 
L 1894 2003 
Q 2506 1872 2764 1633 
Q 3022 1394 3022 966 
Q 3022 478 2636 193 
Q 2250 -91 1575 -91 
Q 1294 -91 989 -36 
Q 684 19 347 128 
L 347 722 
Q 666 556 975 473 
Q 1284 391 1588 391 
Q 1994 391 2212 530 
Q 2431 669 2431 922 
Q 2431 1156 2273 1281 
Q 2116 1406 1581 1522 
L 1381 1569 
Q 847 1681 609 1914 
Q 372 2147 372 2553 
Q 372 3047 722 3315 
Q 1072 3584 1716 3584 
Q 2034 3584 2315 3537 
Q 2597 3491 2834 3397 
z
" transform="scale(0.015625)"/>
       <path id="DejaVuSans-29" d="M 513 4856 
L 1013 4856 
Q 1481 4119 1714 3412 
Q 1947 2706 1947 2009 
Q 1947 1309 1714 600 
Q 1481 -109 1013 -844 
L 513 -844 
Q 928 -128 1133 580 
Q 1338 1288 1338 2009 
Q 1338 2731 1133 3434 
Q 928 4138 513 4856 
z
" transform="scale(0.015625)"/>
       <path id="DejaVuSans-75" d="M 544 1381 
L 544 3500 
L 1119 3500 
L 1119 1403 
Q 1119 906 1312 657 
Q 1506 409 1894 409 
Q 2359 409 2629 706 
Q 2900 1003 2900 1516 
L 2900 3500 
L 3475 3500 
L 3475 0 
L 2900 0 
L 2900 538 
Q 2691 219 2414 64 
Q 2138 -91 1772 -91 
Q 1169 -91 856 284 
Q 544 659 544 1381 
z
M 1991 3584 
L 1991 3584 
z
" transform="scale(0.015625)"/>
       <path id="DejaVuSans-64" d="M 2906 2969 
L 2906 4863 
L 3481 4863 
L 3481 0 
L 2906 0 
L 2906 525 
Q 2725 213 2448 61 
Q 2172 -91 1784 -91 
Q 1150 -91 751 415 
Q 353 922 353 1747 
Q 353 2572 751 3078 
Q 1150 3584 1784 3584 
Q 2172 3584 2448 3432 
Q 2725 3281 2906 2969 
z
M 947 1747 
Q 947 1113 1208 752 
Q 1469 391 1925 391 
Q 2381 391 2643 752 
Q 2906 1113 2906 1747 
Q 2906 2381 2643 2742 
Q 2381 3103 1925 3103 
Q 1469 3103 1208 2742 
Q 947 2381 947 1747 
z
" transform="scale(0.015625)"/>
       <path id="DejaVuSans-72" d="M 2631 2963 
Q 2534 3019 2420 3045 
Q 2306 3072 2169 3072 
Q 1681 3072 1420 2755 
Q 1159 2438 1159 1844 
L 1159 0 
L 581 0 
L 581 3500 
L 1159 3500 
L 1159 2956 
Q 1341 3275 1631 3429 
Q 1922 3584 2338 3584 
Q 2397 3584 2469 3576 
Q 2541 3569 2628 3553 
L 2631 2963 
z
" transform="scale(0.015625)"/>
       <path id="DejaVuSans-41" d="M 2188 4044 
L 1331 1722 
L 3047 1722 
L 2188 4044 
z
M 1831 4666 
L 2547 4666 
L 4325 0 
L 3669 0 
L 3244 1197 
L 1141 1197 
L 716 0 
L 50 0 
L 1831 4666 
z
" transform="scale(0.015625)"/>
       <path id="DejaVuSans-4e" d="M 628 4666 
L 1478 4666 
L 3547 763 
L 3547 4666 
L 4159 4666 
L 4159 0 
L 3309 0 
L 1241 3903 
L 1241 0 
L 628 0 
L 628 4666 
z
" transform="scale(0.015625)"/>
       <path id="DejaVuSans-53" d="M 3425 4513 
L 3425 3897 
Q 3066 4069 2747 4153 
Q 2428 4238 2131 4238 
Q 1616 4238 1336 4038 
Q 1056 3838 1056 3469 
Q 1056 3159 1242 3001 
Q 1428 2844 1947 2747 
L 2328 2669 
Q 3034 2534 3370 2195 
Q 3706 1856 3706 1288 
Q 3706 609 3251 259 
Q 2797 -91 1919 -91 
Q 1588 -91 1214 -16 
Q 841 59 441 206 
L 441 856 
Q 825 641 1194 531 
Q 1563 422 1919 422 
Q 2459 422 2753 634 
Q 3047 847 3047 1241 
Q 3047 1584 2836 1778 
Q 2625 1972 2144 2069 
L 1759 2144 
Q 1053 2284 737 2584 
Q 422 2884 422 3419 
Q 422 4038 858 4394 
Q 1294 4750 2059 4750 
Q 2388 4750 2728 4690 
Q 3069 4631 3425 4513 
z
" transform="scale(0.015625)"/>
       <path id="DejaVuSans-67" d="M 2906 1791 
Q 2906 2416 2648 2759 
Q 2391 3103 1925 3103 
Q 1463 3103 1205 2759 
Q 947 2416 947 1791 
Q 947 1169 1205 825 
Q 1463 481 1925 481 
Q 2391 481 2648 825 
Q 2906 1169 2906 1791 
z
M 3481 434 
Q 3481 -459 3084 -895 
Q 2688 -1331 1869 -1331 
Q 1566 -1331 1297 -1286 
Q 1028 -1241 775 -1147 
L 775 -588 
Q 1028 -725 1275 -790 
Q 1522 -856 1778 -856 
Q 2344 -856 2625 -561 
Q 2906 -266 2906 331 
L 2906 616 
Q 2728 306 2450 153 
Q 2172 0 1784 0 
Q 1141 0 747 490 
Q 353 981 353 1791 
Q 353 2603 747 3093 
Q 1141 3584 1784 3584 
Q 2172 3584 2450 3431 
Q 2728 3278 2906 2969 
L 2906 3500 
L 3481 3500 
L 3481 434 
z
" transform="scale(0.015625)"/>
       <path id="DejaVuSans-6f" d="M 1959 3097 
Q 1497 3097 1228 2736 
Q 959 2375 959 1747 
Q 959 1119 1226 758 
Q 1494 397 1959 397 
Q 2419 397 2687 759 
Q 2956 1122 2956 1747 
Q 2956 2369 2687 2733 
Q 2419 3097 1959 3097 
z
M 1959 3584 
Q 2709 3584 3137 3096 
Q 3566 2609 3566 1747 
Q 3566 888 3137 398 
Q 2709 -91 1959 -91 
Q 1206 -91 779 398 
Q 353 888 353 1747 
Q 353 2609 779 3096 
Q 1206 3584 1959 3584 
z
" transform="scale(0.015625)"/>
       <path id="DejaVuSans-76" d="M 191 3500 
L 800 3500 
L 1894 563 
L 2988 3500 
L 3597 3500 
L 2284 0 
L 1503 0 
L 191 3500 
z
" transform="scale(0.015625)"/>
       <path id="DejaVuSans-43" d="M 4122 4306 
L 4122 3641 
Q 3803 3938 3442 4084 
Q 3081 4231 2675 4231 
Q 1875 4231 1450 3742 
Q 1025 3253 1025 2328 
Q 1025 1406 1450 917 
Q 1875 428 2675 428 
Q 3081 428 3442 575 
Q 3803 722 4122 1019 
L 4122 359 
Q 3791 134 3420 21 
Q 3050 -91 2638 -91 
Q 1578 -91 968 557 
Q 359 1206 359 2328 
Q 359 3453 968 4101 
Q 1578 4750 2638 4750 
Q 3056 4750 3426 4639 
Q 3797 4528 4122 4306 
z
" transform="scale(0.015625)"/>
       <path id="DejaVuSans-49" d="M 628 4666 
L 1259 4666 
L 1259 0 
L 628 0 
L 628 4666 
z
" transform="scale(0.015625)"/>
       <path id="DejaVuSans-46" d="M 628 4666 
L 3309 4666 
L 3309 4134 
L 1259 4134 
L 1259 2759 
L 3109 2759 
L 3109 2228 
L 1259 2228 
L 1259 0 
L 628 0 
L 628 4666 
z
" transform="scale(0.015625)"/>
       <path id="DejaVuSans-52" d="M 2841 2188 
Q 3044 2119 3236 1894 
Q 3428 1669 3622 1275 
L 4263 0 
L 3584 0 
L 2988 1197 
Q 2756 1666 2539 1819 
Q 2322 1972 1947 1972 
L 1259 1972 
L 1259 0 
L 628 0 
L 628 4666 
L 2053 4666 
Q 2853 4666 3247 4331 
Q 3641 3997 3641 3322 
Q 3641 2881 3436 2590 
Q 3231 2300 2841 2188 
z
M 1259 4147 
L 1259 2491 
L 2053 2491 
Q 2509 2491 2742 2702 
Q 2975 2913 2975 3322 
Q 2975 3731 2742 3939 
Q 2509 4147 2053 4147 
L 1259 4147 
z
" transform="scale(0.015625)"/>
       <path id="DejaVuSans-2d" d="M 313 2009 
L 1997 2009 
L 1997 1497 
L 313 1497 
L 313 2009 
z
" transform="scale(0.015625)"/>
      </defs>
      <use xlink:href="#DejaVuSans-4f"/>
      <use xlink:href="#DejaVuSans-6e" x="78.710938"/>
      <use xlink:href="#DejaVuSans-6c" x="142.089844"/>
      <use xlink:href="#DejaVuSans-69" x="169.873047"/>
      <use xlink:href="#DejaVuSans-6e" x="197.65625"/>
      <use xlink:href="#DejaVuSans-65" x="261.035156"/>
      <use xlink:href="#DejaVuSans-20" x="322.558594"/>
      <use xlink:href="#DejaVuSans-4c" x="354.345703"/>
      <use xlink:href="#DejaVuSans-61" x="410.058594"/>
      <use xlink:href="#DejaVuSans-74" x="471.337891"/>
      <use xlink:href="#DejaVuSans-65" x="510.546875"/>
      <use xlink:href="#DejaVuSans-6e" x="572.070312"/>
      <use xlink:href="#DejaVuSans-63" x="635.449219"/>
      <use xlink:href="#DejaVuSans-79" x="690.429688"/>
      <use xlink:href="#DejaVuSans-20" x="749.609375"/>
      <use xlink:href="#DejaVuSans-28" x="781.396484"/>
      <use xlink:href="#DejaVuSans-6d" x="820.410156"/>
      <use xlink:href="#DejaVuSans-73" x="917.822266"/>
      <use xlink:href="#DejaVuSans-29" x="969.921875"/>
      <use xlink:href="#DejaVuSans-20" x="1008.935547"/>
      <use xlink:href="#DejaVuSans-75" x="1040.722656"/>
      <use xlink:href="#DejaVuSans-6e" x="1104.101562"/>
      <use xlink:href="#DejaVuSans-64" x="1167.480469"/>
      <use xlink:href="#DejaVuSans-65" x="1230.957031"/>
      <use xlink:href="#DejaVuSans-72" x="1292.480469"/>
      <use xlink:href="#DejaVuSans-20" x="1333.59375"/>
      <use xlink:href="#DejaVuSans-4c" x="1365.380859"/>
      <use xlink:href="#DejaVuSans-41" x="1423.34375"/>
      <use xlink:href="#DejaVuSans-4e" x="1491.751953"/>
      <use xlink:href="#DejaVuSans-20" x="1566.556641"/>
      <use xlink:href="#DejaVuSans-53" x="1598.34375"/>
      <use xlink:href="#DejaVuSans-65" x="1661.820312"/>
      <use xlink:href="#DejaVuSans-74" x="1723.34375"/>
      <use xlink:href="#DejaVuSans-74" x="1762.552734"/>
      <use xlink:href="#DejaVuSans-69" x="1801.761719"/>
      <use xlink:href="#DejaVuSans-6e" x="1829.544922"/>
      <use xlink:href="#DejaVuSans-67" x="1892.923828"/>
      <use xlink:href="#DejaVuSans-20" x="1956.400391"/>
      <use xlink:href="#DejaVuSans-6f" x="1988.1875"/>
      <use xlink:href="#DejaVuSans-76" x="2049.369141"/>
      <use xlink:href="#DejaVuSans-65" x="2108.548828"/>
      <use xlink:href="#DejaVuSans-72" x="2170.072266"/>
      <use xlink:href="#DejaVuSans-20" x="2211.185547"/>
      <use xlink:href="#DejaVuSans-43" x="2242.972656"/>
      <use xlink:href="#DejaVuSans-49" x="2312.796875"/>
      <use xlink:href="#DejaVuSans-46" x="2342.289062"/>
      <use xlink:href="#DejaVuSans-41" x="2390.683594"/>
      <use xlink:href="#DejaVuSans-52" x="2459.091797"/>
      <use xlink:href="#DejaVuSans-2d" x="2524.574219"/>
      <use xlink:href="#DejaVuSans-31" x="2560.658203"/>
      <use xlink:href="#DejaVuSans-30" x="2624.28125"/>
     </g>
    </g>
   </g>
   <g id="matplotlib.axis_2">
    <g id="ytick_1">
     <g id="line2d_50">
      <defs>
       <path id="mfa5bfc99a6" d="M 0 0 
L -3.5 0 
" style="stroke: #000000; stroke-width: 0.8"/>
      </defs>
      <g>
       <use xlink:href="#mfa5bfc99a6" x="50.14375" y="154.650843" style="stroke: #000000; stroke-width: 0.8"/>
      </g>
     </g>
     <g id="text_8">
      <!-- 0.75 -->
      <g transform="translate(20.878125 158.450062) scale(0.1 -0.1)">
       <defs>
        <path id="DejaVuSans-2e" d="M 684 794 
L 1344 794 
L 1344 0 
L 684 0 
L 684 794 
z
" transform="scale(0.015625)"/>
       </defs>
       <use xlink:href="#DejaVuSans-30"/>
       <use xlink:href="#DejaVuSans-2e" x="63.623047"/>
       <use xlink:href="#DejaVuSans-37" x="95.410156"/>
       <use xlink:href="#DejaVuSans-35" x="159.033203"/>
      </g>
     </g>
    </g>
    <g id="ytick_2">
     <g id="line2d_51">
      <g>
       <use xlink:href="#mfa5bfc99a6" x="50.14375" y="120.380671" style="stroke: #000000; stroke-width: 0.8"/>
      </g>
     </g>
     <g id="text_9">
      <!-- 0.80 -->
      <g transform="translate(20.878125 124.17989) scale(0.1 -0.1)">
       <defs>
        <path id="DejaVuSans-38" d="M 2034 2216 
Q 1584 2216 1326 1975 
Q 1069 1734 1069 1313 
Q 1069 891 1326 650 
Q 1584 409 2034 409 
Q 2484 409 2743 651 
Q 3003 894 3003 1313 
Q 3003 1734 2745 1975 
Q 2488 2216 2034 2216 
z
M 1403 2484 
Q 997 2584 770 2862 
Q 544 3141 544 3541 
Q 544 4100 942 4425 
Q 1341 4750 2034 4750 
Q 2731 4750 3128 4425 
Q 3525 4100 3525 3541 
Q 3525 3141 3298 2862 
Q 3072 2584 2669 2484 
Q 3125 2378 3379 2068 
Q 3634 1759 3634 1313 
Q 3634 634 3220 271 
Q 2806 -91 2034 -91 
Q 1263 -91 848 271 
Q 434 634 434 1313 
Q 434 1759 690 2068 
Q 947 2378 1403 2484 
z
M 1172 3481 
Q 1172 3119 1398 2916 
Q 1625 2713 2034 2713 
Q 2441 2713 2670 2916 
Q 2900 3119 2900 3481 
Q 2900 3844 2670 4047 
Q 2441 4250 2034 4250 
Q 1625 4250 1398 4047 
Q 1172 3844 1172 3481 
z
" transform="scale(0.015625)"/>
       </defs>
       <use xlink:href="#DejaVuSans-30"/>
       <use xlink:href="#DejaVuSans-2e" x="63.623047"/>
       <use xlink:href="#DejaVuSans-38" x="95.410156"/>
       <use xlink:href="#DejaVuSans-30" x="159.033203"/>
      </g>
     </g>
    </g>
    <g id="ytick_3">
     <g id="line2d_52">
      <g>
       <use xlink:href="#mfa5bfc99a6" x="50.14375" y="86.110499" style="stroke: #000000; stroke-width: 0.8"/>
      </g>
     </g>
     <g id="text_10">
      <!-- 0.85 -->
      <g transform="translate(20.878125 89.909717) scale(0.1 -0.1)">
       <use xlink:href="#DejaVuSans-30"/>
       <use xlink:href="#DejaVuSans-2e" x="63.623047"/>
       <use xlink:href="#DejaVuSans-38" x="95.410156"/>
       <use xlink:href="#DejaVuSans-35" x="159.033203"/>
      </g>
     </g>
    </g>
    <g id="ytick_4">
     <g id="line2d_53">
      <g>
       <use xlink:href="#mfa5bfc99a6" x="50.14375" y="51.840326" style="stroke: #000000; stroke-width: 0.8"/>
      </g>
     </g>
     <g id="text_11">
      <!-- 0.90 -->
      <g transform="translate(20.878125 55.639545) scale(0.1 -0.1)">
       <defs>
        <path id="DejaVuSans-39" d="M 703 97 
L 703 672 
Q 941 559 1184 500 
Q 1428 441 1663 441 
Q 2288 441 2617 861 
Q 2947 1281 2994 2138 
Q 2813 1869 2534 1725 
Q 2256 1581 1919 1581 
Q 1219 1581 811 2004 
Q 403 2428 403 3163 
Q 403 3881 828 4315 
Q 1253 4750 1959 4750 
Q 2769 4750 3195 4129 
Q 3622 3509 3622 2328 
Q 3622 1225 3098 567 
Q 2575 -91 1691 -91 
Q 1453 -91 1209 -44 
Q 966 3 703 97 
z
M 1959 2075 
Q 2384 2075 2632 2365 
Q 2881 2656 2881 3163 
Q 2881 3666 2632 3958 
Q 2384 4250 1959 4250 
Q 1534 4250 1286 3958 
Q 1038 3666 1038 3163 
Q 1038 2656 1286 2365 
Q 1534 2075 1959 2075 
z
" transform="scale(0.015625)"/>
       </defs>
       <use xlink:href="#DejaVuSans-30"/>
       <use xlink:href="#DejaVuSans-2e" x="63.623047"/>
       <use xlink:href="#DejaVuSans-39" x="95.410156"/>
       <use xlink:href="#DejaVuSans-30" x="159.033203"/>
      </g>
     </g>
    </g>
    <g id="ytick_5">
     <g id="line2d_54">
      <g>
       <use xlink:href="#mfa5bfc99a6" x="50.14375" y="17.570154" style="stroke: #000000; stroke-width: 0.8"/>
      </g>
     </g>
     <g id="text_12">
      <!-- 0.95 -->
      <g transform="translate(20.878125 21.369373) scale(0.1 -0.1)">
       <use xlink:href="#DejaVuSans-30"/>
       <use xlink:href="#DejaVuSans-2e" x="63.623047"/>
       <use xlink:href="#DejaVuSans-39" x="95.410156"/>
       <use xlink:href="#DejaVuSans-35" x="159.033203"/>
      </g>
     </g>
    </g>
    <g id="text_13">
     <!-- Accuracy -->
     <g transform="translate(14.798438 113.188125) rotate(-90) scale(0.1 -0.1)">
      <use xlink:href="#DejaVuSans-41"/>
      <use xlink:href="#DejaVuSans-63" x="66.658203"/>
      <use xlink:href="#DejaVuSans-63" x="121.638672"/>
      <use xlink:href="#DejaVuSans-75" x="176.619141"/>
      <use xlink:href="#DejaVuSans-72" x="239.998047"/>
      <use xlink:href="#DejaVuSans-61" x="281.111328"/>
      <use xlink:href="#DejaVuSans-63" x="342.390625"/>
      <use xlink:href="#DejaVuSans-79" x="397.371094"/>
     </g>
    </g>
   </g>
   <g id="patch_16">
    <path d="M 50.14375 173.52 
L 50.14375 7.2 
" style="fill: none; stroke: #000000; stroke-width: 0.8; stroke-linejoin: miter; stroke-linecap: square"/>
   </g>
   <g id="patch_17">
    <path d="M 384.94375 173.52 
L 384.94375 7.2 
" style="fill: none; stroke: #000000; stroke-width: 0.8; stroke-linejoin: miter; stroke-linecap: square"/>
   </g>
   <g id="patch_18">
    <path d="M 50.14375 173.52 
L 384.94375 173.52 
" style="fill: none; stroke: #000000; stroke-width: 0.8; stroke-linejoin: miter; stroke-linecap: square"/>
   </g>
   <g id="patch_19">
    <path d="M 50.14375 7.2 
L 384.94375 7.2 
" style="fill: none; stroke: #000000; stroke-width: 0.8; stroke-linejoin: miter; stroke-linecap: square"/>
   </g>
   <g id="text_14">
    <g id="patch_20">
     <path d="M 220.698522 138.665055 
L 281.311022 138.665055 
Q 283.811022 138.665055 283.811022 136.165055 
L 283.811022 126.48693 
Q 283.811022 123.98693 281.311022 123.98693 
L 220.698522 123.98693 
Q 218.198522 123.98693 218.198522 126.48693 
L 218.198522 136.165055 
Q 218.198522 138.665055 220.698522 138.665055 
z
" style="fill: #008000; opacity: 0.15; stroke: #000000; stroke-linejoin: miter"/>
    </g>
    <!-- Faster-Crypt -->
    <g transform="translate(220.698522 134.085368) scale(0.1 -0.1)">
     <defs>
      <path id="DejaVuSans-70" d="M 1159 525 
L 1159 -1331 
L 581 -1331 
L 581 3500 
L 1159 3500 
L 1159 2969 
Q 1341 3281 1617 3432 
Q 1894 3584 2278 3584 
Q 2916 3584 3314 3078 
Q 3713 2572 3713 1747 
Q 3713 922 3314 415 
Q 2916 -91 2278 -91 
Q 1894 -91 1617 61 
Q 1341 213 1159 525 
z
M 3116 1747 
Q 3116 2381 2855 2742 
Q 2594 3103 2138 3103 
Q 1681 3103 1420 2742 
Q 1159 2381 1159 1747 
Q 1159 1113 1420 752 
Q 1681 391 2138 391 
Q 2594 391 2855 752 
Q 3116 1113 3116 1747 
z
" transform="scale(0.015625)"/>
     </defs>
     <use xlink:href="#DejaVuSans-46"/>
     <use xlink:href="#DejaVuSans-61" x="48.394531"/>
     <use xlink:href="#DejaVuSans-73" x="109.673828"/>
     <use xlink:href="#DejaVuSans-74" x="161.773438"/>
     <use xlink:href="#DejaVuSans-65" x="200.982422"/>
     <use xlink:href="#DejaVuSans-72" x="262.505859"/>
     <use xlink:href="#DejaVuSans-2d" x="297.244141"/>
     <use xlink:href="#DejaVuSans-43" x="333.328125"/>
     <use xlink:href="#DejaVuSans-72" x="403.152344"/>
     <use xlink:href="#DejaVuSans-79" x="444.265625"/>
     <use xlink:href="#DejaVuSans-70" x="503.445312"/>
     <use xlink:href="#DejaVuSans-74" x="566.921875"/>
    </g>
   </g>
   <g id="text_15">
    <g id="patch_21">
     <path d="M 254.93008 110.837675 
L 281.859767 110.837675 
Q 284.359767 110.837675 284.359767 108.337675 
L 284.359767 98.65955 
Q 284.359767 96.15955 281.859767 96.15955 
L 254.93008 96.15955 
Q 252.43008 96.15955 252.43008 98.65955 
L 252.43008 108.337675 
Q 252.43008 110.837675 254.93008 110.837675 
z
" style="fill: #008000; opacity: 0.15; stroke: #000000; stroke-linejoin: miter"/>
    </g>
    <!-- CHET -->
    <g transform="translate(254.93008 106.257988) scale(0.1 -0.1)">
     <defs>
      <path id="DejaVuSans-48" d="M 628 4666 
L 1259 4666 
L 1259 2753 
L 3553 2753 
L 3553 4666 
L 4184 4666 
L 4184 0 
L 3553 0 
L 3553 2222 
L 1259 2222 
L 1259 0 
L 628 0 
L 628 4666 
z
" transform="scale(0.015625)"/>
      <path id="DejaVuSans-45" d="M 628 4666 
L 3578 4666 
L 3578 4134 
L 1259 4134 
L 1259 2753 
L 3481 2753 
L 3481 2222 
L 1259 2222 
L 1259 531 
L 3634 531 
L 3634 0 
L 628 0 
L 628 4666 
z
" transform="scale(0.015625)"/>
      <path id="DejaVuSans-54" d="M -19 4666 
L 3928 4666 
L 3928 4134 
L 2272 4134 
L 2272 0 
L 1638 0 
L 1638 4134 
L -19 4134 
L -19 4666 
z
" transform="scale(0.015625)"/>
     </defs>
     <use xlink:href="#DejaVuSans-43"/>
     <use xlink:href="#DejaVuSans-48" x="69.824219"/>
     <use xlink:href="#DejaVuSans-45" x="145.019531"/>
     <use xlink:href="#DejaVuSans-54" x="208.203125"/>
    </g>
   </g>
   <g id="text_16">
    <g id="patch_22">
     <path d="M 324.955899 35.923079 
L 345.143399 35.923079 
Q 347.643399 35.923079 347.643399 33.423079 
L 347.643399 23.744954 
Q 347.643399 21.244954 345.143399 21.244954 
L 324.955899 21.244954 
Q 322.455899 21.244954 322.455899 23.744954 
L 322.455899 33.423079 
Q 322.455899 35.923079 324.955899 35.923079 
z
" style="fill: #008000; opacity: 0.15; stroke: #000000; stroke-linejoin: miter"/>
    </g>
    <!-- SHE -->
    <g transform="translate(324.955899 31.343391) scale(0.1 -0.1)">
     <use xlink:href="#DejaVuSans-53"/>
     <use xlink:href="#DejaVuSans-48" x="63.476562"/>
     <use xlink:href="#DejaVuSans-45" x="138.671875"/>
    </g>
   </g>
   <g id="text_17">
    <g id="patch_23">
     <path d="M 65.361932 143.805581 
L 104.543182 143.805581 
Q 107.043182 143.805581 107.043182 141.305581 
L 107.043182 131.627456 
Q 107.043182 129.127456 104.543182 129.127456 
L 65.361932 129.127456 
Q 62.861932 129.127456 62.861932 131.627456 
L 62.861932 141.305581 
Q 62.861932 143.805581 65.361932 143.805581 
z
" style="fill: #ff0000; opacity: 0.15; stroke: #000000; stroke-linejoin: miter"/>
    </g>
    <!-- FalconN -->
    <g transform="translate(65.361932 139.225894) scale(0.1 -0.1)">
     <use xlink:href="#DejaVuSans-46"/>
     <use xlink:href="#DejaVuSans-61" x="48.394531"/>
     <use xlink:href="#DejaVuSans-6c" x="109.673828"/>
     <use xlink:href="#DejaVuSans-63" x="137.457031"/>
     <use xlink:href="#DejaVuSans-6f" x="192.4375"/>
     <use xlink:href="#DejaVuSans-6e" x="253.619141"/>
     <use xlink:href="#DejaVuSans-4e" x="316.998047"/>
    </g>
   </g>
   <g id="text_18">
    <g id="patch_24">
     <path d="M 90.484593 31.947739 
L 125.278343 31.947739 
Q 127.778343 31.947739 127.778343 29.447739 
L 127.778343 19.769614 
Q 127.778343 17.269614 125.278343 17.269614 
L 90.484593 17.269614 
Q 87.984593 17.269614 87.984593 19.769614 
L 87.984593 29.447739 
Q 87.984593 31.947739 90.484593 31.947739 
z
" style="fill: #0000ff; opacity: 0.15; stroke: #000000; stroke-linejoin: miter"/>
    </g>
    <!-- GForce -->
    <g transform="translate(90.484593 27.368051) scale(0.1 -0.1)">
     <defs>
      <path id="DejaVuSans-47" d="M 3809 666 
L 3809 1919 
L 2778 1919 
L 2778 2438 
L 4434 2438 
L 4434 434 
Q 4069 175 3628 42 
Q 3188 -91 2688 -91 
Q 1594 -91 976 548 
Q 359 1188 359 2328 
Q 359 3472 976 4111 
Q 1594 4750 2688 4750 
Q 3144 4750 3555 4637 
Q 3966 4525 4313 4306 
L 4313 3634 
Q 3963 3931 3569 4081 
Q 3175 4231 2741 4231 
Q 1884 4231 1454 3753 
Q 1025 3275 1025 2328 
Q 1025 1384 1454 906 
Q 1884 428 2741 428 
Q 3075 428 3337 486 
Q 3600 544 3809 666 
z
" transform="scale(0.015625)"/>
     </defs>
     <use xlink:href="#DejaVuSans-47"/>
     <use xlink:href="#DejaVuSans-46" x="77.490234"/>
     <use xlink:href="#DejaVuSans-6f" x="131.384766"/>
     <use xlink:href="#DejaVuSans-72" x="192.566406"/>
     <use xlink:href="#DejaVuSans-63" x="231.429688"/>
     <use xlink:href="#DejaVuSans-65" x="286.410156"/>
    </g>
   </g>
   <g id="text_19">
    <g id="patch_25">
     <path d="M 138.760541 100.145382 
L 187.138666 100.145382 
Q 189.638666 100.145382 189.638666 97.645382 
L 189.638666 87.967257 
Q 189.638666 85.467257 187.138666 85.467257 
L 138.760541 85.467257 
Q 136.260541 85.467257 136.260541 87.967257 
L 136.260541 97.645382 
Q 136.260541 100.145382 138.760541 100.145382 
z
" style="fill: #ff0000; opacity: 0.15; stroke: #000000; stroke-linejoin: miter"/>
    </g>
    <!-- CryptGPU -->
    <g transform="translate(138.760541 95.565694) scale(0.1 -0.1)">
     <defs>
      <path id="DejaVuSans-50" d="M 1259 4147 
L 1259 2394 
L 2053 2394 
Q 2494 2394 2734 2622 
Q 2975 2850 2975 3272 
Q 2975 3691 2734 3919 
Q 2494 4147 2053 4147 
L 1259 4147 
z
M 628 4666 
L 2053 4666 
Q 2838 4666 3239 4311 
Q 3641 3956 3641 3272 
Q 3641 2581 3239 2228 
Q 2838 1875 2053 1875 
L 1259 1875 
L 1259 0 
L 628 0 
L 628 4666 
z
" transform="scale(0.015625)"/>
      <path id="DejaVuSans-55" d="M 556 4666 
L 1191 4666 
L 1191 1831 
Q 1191 1081 1462 751 
Q 1734 422 2344 422 
Q 2950 422 3222 751 
Q 3494 1081 3494 1831 
L 3494 4666 
L 4128 4666 
L 4128 1753 
Q 4128 841 3676 375 
Q 3225 -91 2344 -91 
Q 1459 -91 1007 375 
Q 556 841 556 1753 
L 556 4666 
z
" transform="scale(0.015625)"/>
     </defs>
     <use xlink:href="#DejaVuSans-43"/>
     <use xlink:href="#DejaVuSans-72" x="69.824219"/>
     <use xlink:href="#DejaVuSans-79" x="110.9375"/>
     <use xlink:href="#DejaVuSans-70" x="170.117188"/>
     <use xlink:href="#DejaVuSans-74" x="233.59375"/>
     <use xlink:href="#DejaVuSans-47" x="272.802734"/>
     <use xlink:href="#DejaVuSans-50" x="350.292969"/>
     <use xlink:href="#DejaVuSans-55" x="410.595703"/>
    </g>
   </g>
   <g id="text_20">
    <g id="patch_26">
     <path d="M 228.290972 38.569878 
L 282.361284 38.569878 
Q 284.861284 38.569878 284.861284 36.069878 
L 284.861284 26.391753 
Q 284.861284 23.891753 282.361284 23.891753 
L 228.290972 23.891753 
Q 225.790972 23.891753 225.790972 26.391753 
L 225.790972 36.069878 
Q 225.790972 38.569878 228.290972 38.569878 
z
" style="fill: #0000ff; opacity: 0.15; stroke: #000000; stroke-linejoin: miter"/>
    </g>
    <!-- CryptoNAS -->
    <g transform="translate(228.290972 33.990191) scale(0.1 -0.1)">
     <use xlink:href="#DejaVuSans-43"/>
     <use xlink:href="#DejaVuSans-72" x="69.824219"/>
     <use xlink:href="#DejaVuSans-79" x="110.9375"/>
     <use xlink:href="#DejaVuSans-70" x="170.117188"/>
     <use xlink:href="#DejaVuSans-74" x="233.59375"/>
     <use xlink:href="#DejaVuSans-6f" x="272.802734"/>
     <use xlink:href="#DejaVuSans-4e" x="333.984375"/>
     <use xlink:href="#DejaVuSans-41" x="408.789062"/>
     <use xlink:href="#DejaVuSans-53" x="477.197266"/>
    </g>
   </g>
   <g id="text_21">
    <g id="patch_27">
     <path d="M 188.997599 30.028609 
L 221.764787 30.028609 
Q 224.264787 30.028609 224.264787 27.528609 
L 224.264787 17.850484 
Q 224.264787 15.350484 221.764787 15.350484 
L 188.997599 15.350484 
Q 186.497599 15.350484 186.497599 17.850484 
L 186.497599 27.528609 
Q 186.497599 30.028609 188.997599 30.028609 
z
" style="fill: #0000ff; opacity: 0.15; stroke: #000000; stroke-linejoin: miter"/>
    </g>
    <!-- COINN -->
    <g transform="translate(188.997599 25.448922) scale(0.1 -0.1)">
     <use xlink:href="#DejaVuSans-43"/>
     <use xlink:href="#DejaVuSans-4f" x="69.824219"/>
     <use xlink:href="#DejaVuSans-49" x="148.535156"/>
     <use xlink:href="#DejaVuSans-4e" x="178.027344"/>
     <use xlink:href="#DejaVuSans-4e" x="252.832031"/>
    </g>
   </g>
   <g id="patch_28">
    <path d="M 263.778623 132.085421 
Q 244.229302 142.406768 223.298798 137.777746 
" style="fill: none; opacity: 0.5; stroke: #000000; stroke-width: 0.6; stroke-linecap: round"/>
    <path d="M 225.035667 139.186038 
L 223.298798 137.777746 
L 225.467553 137.233227 
z
" style="opacity: 0.5; stroke: #000000; stroke-width: 0.6; stroke-linecap: round"/>
   </g>
   <g id="patch_29">
    <path d="M 270.207186 104.633214 
Q 264.419406 109.428728 257.594281 109.964986 
" style="fill: none; opacity: 0.5; stroke: #000000; stroke-width: 0.6; stroke-linecap: round"/>
    <path d="M 259.666466 110.805254 
L 257.594281 109.964986 
L 259.509807 108.811399 
z
" style="opacity: 0.5; stroke: #000000; stroke-width: 0.6; stroke-linecap: round"/>
   </g>
   <g id="patch_30">
    <path d="M 335.440893 29.819154 
Q 331.808445 33.203905 327.593178 34.023391 
" style="fill: none; opacity: 0.5; stroke: #000000; stroke-width: 0.6; stroke-linecap: round"/>
    <path d="M 329.747258 34.62334 
L 327.593178 34.023391 
L 329.365585 32.660097 
z
" style="opacity: 0.5; stroke: #000000; stroke-width: 0.6; stroke-linecap: round"/>
   </g>
   <g id="patch_31">
    <path d="M 89.939544 137.368011 
Q 79.538817 143.859471 68.013114 142.643036 
" style="fill: none; opacity: 0.5; stroke: #000000; stroke-width: 0.6; stroke-linecap: round"/>
    <path d="M 69.89711 143.847429 
L 68.013114 142.643036 
L 70.107026 141.858476 
z
" style="opacity: 0.5; stroke: #000000; stroke-width: 0.6; stroke-linecap: round"/>
   </g>
   <g id="patch_32">
    <path d="M 111.574772 25.556633 
Q 102.880445 31.308653 93.146887 30.683679 
" style="fill: none; opacity: 0.5; stroke: #000000; stroke-width: 0.6; stroke-linecap: round"/>
    <path d="M 95.078701 31.809777 
L 93.146887 30.683679 
L 95.206854 29.813887 
z
" style="opacity: 0.5; stroke: #000000; stroke-width: 0.6; stroke-linecap: round"/>
   </g>
   <g id="patch_33">
    <path d="M 171.210007 93.627051 
Q 156.931336 101.765432 141.388232 99.136409 
" style="fill: none; opacity: 0.5; stroke: #000000; stroke-width: 0.6; stroke-linecap: round"/>
    <path d="M 143.193446 100.455954 
L 141.388232 99.136409 
L 143.526997 98.483964 
z
" style="opacity: 0.5; stroke: #000000; stroke-width: 0.6; stroke-linecap: round"/>
   </g>
   <g id="patch_34">
    <path d="M 265.288865 31.848844 
Q 246.665934 35.49515 230.613705 26.694993 
" style="fill: none; opacity: 0.5; stroke: #000000; stroke-width: 0.6; stroke-linecap: round"/>
    <path d="M 231.886733 28.533308 
L 230.613705 26.694993 
L 232.848173 26.779559 
z
" style="opacity: 0.5; stroke: #000000; stroke-width: 0.6; stroke-linecap: round"/>
   </g>
   <g id="patch_35">
    <path d="M 208.422534 23.66789 
Q 200.537804 29.060488 191.663315 28.704737 
" style="fill: none; opacity: 0.5; stroke: #000000; stroke-width: 0.6; stroke-linecap: round"/>
    <path d="M 193.621655 29.784044 
L 191.663315 28.704737 
L 193.701765 27.785649 
z
" style="opacity: 0.5; stroke: #000000; stroke-width: 0.6; stroke-linecap: round"/>
   </g>
   <g id="legend_1">
    <g id="patch_36">
     <path d="M 306.265625 113.877188 
L 377.94375 113.877188 
Q 379.94375 113.877188 379.94375 111.877188 
L 379.94375 68.842813 
Q 379.94375 66.842813 377.94375 66.842813 
L 306.265625 66.842813 
Q 304.265625 66.842813 304.265625 68.842813 
L 304.265625 111.877188 
Q 304.265625 113.877188 306.265625 113.877188 
z
" style="fill: #ffffff; opacity: 0.8; stroke: #cccccc; stroke-linejoin: miter"/>
    </g>
    <g id="PathCollection_35">
     <g>
      <use xlink:href="#md03ce9130a" x="318.265625" y="75.81625" style="fill: #008000; stroke: #008000; stroke-width: 1.5"/>
     </g>
    </g>
    <g id="text_22">
     <!-- Pure-HE -->
     <g transform="translate(336.265625 78.44125) scale(0.1 -0.1)">
      <use xlink:href="#DejaVuSans-50"/>
      <use xlink:href="#DejaVuSans-75" x="58.552734"/>
      <use xlink:href="#DejaVuSans-72" x="121.931641"/>
      <use xlink:href="#DejaVuSans-65" x="160.794922"/>
      <use xlink:href="#DejaVuSans-2d" x="222.318359"/>
      <use xlink:href="#DejaVuSans-48" x="258.402344"/>
      <use xlink:href="#DejaVuSans-45" x="333.597656"/>
     </g>
    </g>
    <g id="PathCollection_36">
     <g>
      <use xlink:href="#m64f04e9df0" x="318.265625" y="90.494375" style="fill: #0000ff; stroke: #0000ff"/>
     </g>
    </g>
    <g id="text_23">
     <!-- S/C -->
     <g transform="translate(336.265625 93.119375) scale(0.1 -0.1)">
      <defs>
       <path id="DejaVuSans-2f" d="M 1625 4666 
L 2156 4666 
L 531 -594 
L 0 -594 
L 1625 4666 
z
" transform="scale(0.015625)"/>
      </defs>
      <use xlink:href="#DejaVuSans-53"/>
      <use xlink:href="#DejaVuSans-2f" x="63.476562"/>
      <use xlink:href="#DejaVuSans-43" x="97.167969"/>
     </g>
    </g>
    <g id="PathCollection_37">
     <g>
      <use xlink:href="#m251ef62024" x="318.265625" y="105.1725" style="fill: #ff0000; stroke: #ff0000"/>
     </g>
    </g>
    <g id="text_24">
     <!-- MPC -->
     <g transform="translate(336.265625 107.7975) scale(0.1 -0.1)">
      <defs>
       <path id="DejaVuSans-4d" d="M 628 4666 
L 1569 4666 
L 2759 1491 
L 3956 4666 
L 4897 4666 
L 4897 0 
L 4281 0 
L 4281 4097 
L 3078 897 
L 2444 897 
L 1241 4097 
L 1241 0 
L 628 0 
L 628 4666 
z
" transform="scale(0.015625)"/>
      </defs>
      <use xlink:href="#DejaVuSans-4d"/>
      <use xlink:href="#DejaVuSans-50" x="86.279297"/>
      <use xlink:href="#DejaVuSans-43" x="146.582031"/>
     </g>
    </g>
   </g>
  </g>
 </g>
 <defs>
  <clipPath id="p1a510e8697">
   <rect x="50.14375" y="7.2" width="334.8" height="166.32"/>
  </clipPath>
 </defs>
</svg>
